<?xml version="1.0" standalone="no"?>
<!DOCTYPE svg PUBLIC "-//W3C//DTD SVG 20010904//EN"
 "http://www.w3.org/TR/2001/REC-SVG-20010904/DTD/svg10.dtd">
<svg version="1.0" xmlns="http://www.w3.org/2000/svg"
 width="2251.000000pt" height="2250.000000pt" viewBox="0 0 2251.000000 2250.000000"
 preserveAspectRatio="xMidYMid meet">

<g transform="translate(0.000000,2250.000000) scale(0.100000,-0.100000)"
fill="#000000" stroke="none">
<path d="M8480 12310 l0 -2780 2780 0 2780 0 0 2780 0 2780 -2780 0 -2780 0 0
-2780z m5520 0 l0 -2740 -2740 0 -2740 0 0 2740 0 2740 2740 0 2740 0 0 -2740z"/>
<path d="M10030 13465 c69 -69 145 -139 170 -155 96 -62 74 -61 1101 -58 l934
3 55 26 c76 37 105 61 195 164 43 50 90 102 104 118 l25 27 -1354 0 -1355 0
125 -125z"/>
<path d="M10523 13153 l-163 -3 0 -608 c0 -334 4 -644 10 -689 12 -104 47
-207 99 -286 22 -34 110 -132 196 -217 l155 -155 0 983 0 982 -67 -2 c-38 -1
-141 -4 -230 -5z"/>
<path d="M11060 12078 l0 -1086 114 -106 c62 -58 118 -106 123 -106 5 0 57 49
116 109 l107 108 0 1077 0 1076 -123 0 c-68 0 -172 3 -230 7 l-107 6 0 -1085z"/>
<path d="M11780 12179 l0 -984 168 170 c186 189 226 248 262 391 19 73 20 113
20 736 l0 658 -118 0 c-66 0 -167 3 -225 7 l-107 6 0 -984z"/>
<path d="M8710 8845 c-60 -19 -123 -74 -151 -132 -26 -55 -31 -146 -10 -207
17 -49 73 -112 124 -138 82 -42 205 -36 282 13 l48 30 -26 27 c-25 24 -27 25
-44 9 -51 -45 -136 -59 -201 -31 -98 41 -144 133 -117 236 33 128 191 186 301
111 l37 -24 24 24 24 24 -39 25 c-72 48 -164 60 -252 33z"/>
<path d="M11134 8850 c-18 -6 -53 -25 -80 -42 -172 -116 -122 -404 79 -459 65
-17 176 -7 228 22 l44 24 3 103 3 102 -36 0 -35 0 0 -85 c0 -84 -1 -86 -27
-96 -147 -58 -293 33 -293 183 0 92 58 163 154 189 50 14 132 -2 171 -33 l27
-21 21 21 c17 18 18 23 7 37 -41 50 -186 79 -266 55z"/>
<path d="M9132 8602 c-61 -137 -112 -252 -112 -255 0 -4 15 -7 34 -7 32 0 35
3 62 65 l28 65 137 0 137 0 31 -65 c29 -62 32 -65 65 -65 20 0 36 1 36 3 0 1
-51 115 -114 252 l-113 250 -39 3 -39 3 -113 -249z m258 -68 c0 -2 -49 -4
-109 -4 l-110 0 46 103 c25 56 50 113 55 127 9 23 14 14 64 -99 30 -68 54
-125 54 -127z"/>
<path d="M9630 8595 l0 -255 173 2 172 3 3 28 3 27 -140 0 -141 0 0 225 0 225
-35 0 -35 0 0 -255z"/>
<path d="M10062 8598 l3 -253 173 -3 172 -2 0 29 0 30 -137 3 -138 3 -3 223
-2 222 -35 0 -35 0 2 -252z"/>
<path d="M10500 8595 l0 -255 185 0 185 0 0 30 0 30 -150 0 -150 0 0 85 0 84
128 3 127 3 3 28 3 27 -130 0 -131 0 0 80 0 79 143 3 142 3 3 28 3 27 -180 0
-181 0 0 -255z"/>
<path d="M11592 8602 c-61 -137 -112 -252 -112 -255 0 -4 15 -7 34 -7 32 0 35
3 62 65 l28 65 137 0 137 0 31 -65 c29 -62 32 -65 65 -65 20 0 36 1 36 3 0 1
-51 115 -114 252 l-113 250 -39 3 -39 3 -113 -249z m258 -68 c0 -2 -49 -4
-109 -4 l-110 0 46 103 c25 56 50 113 55 127 9 23 14 14 64 -99 30 -68 54
-125 54 -127z"/>
<path d="M12090 8595 l0 -255 35 0 35 0 0 80 0 80 80 0 80 0 56 -80 c52 -74
58 -80 91 -80 43 0 42 4 -29 101 -33 47 -48 74 -40 77 27 9 75 58 88 89 34 81
0 180 -76 220 -39 21 -56 23 -182 23 l-138 0 0 -255z m280 180 c32 -16 60 -61
60 -95 0 -11 -6 -35 -14 -54 -20 -48 -66 -66 -170 -66 l-86 0 0 115 0 115 90
0 c62 0 100 -5 120 -15z"/>
<path d="M12620 8595 l0 -255 35 0 35 0 0 255 0 255 -35 0 -35 0 0 -255z"/>
<path d="M8663 8056 c-70 -32 -88 -117 -37 -183 l28 -36 -25 -16 c-121 -78
-130 -193 -19 -248 73 -37 197 -26 251 23 19 17 21 16 55 -17 l35 -34 19 25
19 25 -33 35 -33 35 18 40 c24 52 24 72 -1 80 -25 8 -40 -1 -40 -23 -1 -9 -6
-27 -13 -39 -12 -23 -14 -22 -75 40 l-63 64 40 27 c109 76 82 203 -46 213 -28
2 -61 -3 -80 -11z m115 -52 c41 -28 21 -89 -40 -120 -30 -16 -31 -15 -54 13
-46 56 -21 123 46 123 14 0 36 -7 48 -16z m56 -356 c-19 -30 -105 -50 -160
-38 -94 21 -100 116 -10 171 l31 19 72 -72 c40 -39 70 -75 67 -80z"/>
<path d="M9695 8057 c-77 -31 -105 -66 -105 -132 0 -78 45 -116 180 -150 35
-9 76 -23 91 -30 46 -25 52 -69 13 -106 -22 -21 -35 -24 -102 -24 -60 0 -87 5
-122 23 -42 21 -46 21 -57 5 -21 -28 -15 -40 35 -65 39 -19 63 -23 142 -23 81
0 100 3 131 23 64 39 86 118 50 178 -22 37 -59 55 -166 84 -88 24 -125 50
-125 90 0 42 41 73 102 78 47 3 84 -4 149 -32 12 -5 19 0 27 23 10 28 9 30
-31 47 -53 21 -172 28 -212 11z"/>
<path d="M10224 8059 c-18 -5 -53 -24 -80 -41 -172 -116 -122 -405 79 -459 57
-15 163 -7 211 16 50 24 97 71 121 121 28 57 27 175 -2 230 -59 111 -203 170
-329 133z m141 -60 c85 -24 155 -132 141 -217 -25 -155 -208 -225 -327 -125
-119 100 -78 299 71 341 47 14 68 14 115 1z"/>
<path d="M10822 8052 c-61 -22 -114 -68 -145 -127 -16 -30 -22 -58 -22 -115 0
-65 4 -82 30 -128 47 -85 129 -132 233 -132 71 0 123 16 164 51 l33 28 -22 22
c-21 21 -23 22 -41 6 -65 -59 -174 -61 -256 -4 -31 22 -76 108 -76 147 0 87
69 178 150 200 55 15 135 0 175 -32 l27 -21 21 21 c17 18 18 23 7 37 -47 57
-185 80 -278 47z"/>
<path d="M12727 8056 c-122 -45 -185 -143 -174 -272 11 -141 117 -234 267
-234 151 0 256 92 267 234 13 160 -89 275 -251 283 -45 2 -85 -2 -109 -11z
m193 -76 c114 -58 133 -233 35 -319 -131 -114 -334 -23 -335 150 0 150 160
240 300 169z"/>
<path d="M13288 8061 c-83 -27 -124 -83 -115 -155 9 -64 53 -98 165 -126 51
-12 103 -31 117 -42 47 -37 24 -108 -40 -124 -46 -11 -140 1 -185 25 -42 22
-45 22 -57 5 -19 -26 -13 -36 37 -63 63 -36 188 -42 253 -13 57 25 87 70 87
131 0 35 -6 49 -33 76 -32 32 -58 42 -183 74 -88 23 -118 78 -70 126 41 41
142 45 210 10 16 -9 30 -14 31 -13 8 11 26 50 23 53 -38 33 -182 55 -240 36z"/>
<path d="M9216 8008 c-13 -29 -58 -129 -101 -223 -43 -93 -84 -185 -91 -202
l-14 -33 35 0 c35 0 37 3 66 65 l29 65 138 0 138 0 28 -65 c27 -62 30 -65 62
-65 19 0 34 3 34 8 0 4 -50 118 -112 255 l-112 247 -38 0 c-37 0 -40 -2 -62
-52z m124 -158 l49 -110 -111 0 c-97 0 -109 2 -104 16 42 109 102 230 109 218
4 -8 30 -63 57 -124z"/>
<path d="M11222 7808 l3 -253 33 -3 32 -3 0 255 0 256 -35 0 -35 0 2 -252z"/>
<path d="M11491 7814 c-61 -135 -111 -250 -111 -255 0 -5 15 -9 33 -9 32 0 35
3 62 65 l27 65 138 0 138 0 27 -65 c28 -64 29 -65 66 -65 l38 0 -35 78 c-19
42 -71 157 -116 255 l-81 177 -37 0 -38 0 -111 -246z m206 49 l52 -118 -55 -3
c-30 -2 -78 -2 -108 0 l-54 3 51 118 c28 64 53 117 56 117 4 0 29 -53 58 -117z"/>
<path d="M11990 7805 l0 -258 144 5 c134 4 147 6 202 34 180 89 189 339 17
441 -46 27 -54 28 -205 31 l-158 4 0 -257z m305 176 c55 -25 85 -61 100 -119
20 -77 3 -142 -52 -194 -40 -38 -71 -47 -184 -54 l-99 -7 0 196 0 197 98 0
c73 0 107 -5 137 -19z"/>
<path d="M8681 7158 c-10 -24 -47 -104 -81 -178 -34 -74 -71 -154 -81 -177
l-18 -43 23 0 c19 0 28 11 49 60 l26 60 121 0 121 0 27 -60 c21 -47 32 -59 50
-60 12 0 22 3 21 8 0 4 -44 102 -97 217 -81 174 -101 211 -120 213 -18 3 -26
-5 -41 -40z m93 -123 c25 -58 46 -110 46 -115 0 -6 -43 -10 -100 -10 -55 0
-100 3 -100 8 0 13 95 222 101 222 3 0 27 -47 53 -105z"/>
<path d="M9020 6979 l0 -221 138 4 c150 4 184 14 208 59 30 59 6 137 -47 154
-20 7 -20 8 8 37 22 23 28 39 28 73 0 85 -60 115 -234 115 l-101 0 0 -221z
m269 157 c14 -13 21 -31 21 -56 0 -62 -24 -74 -146 -78 l-104 -4 0 82 0 82
104 -4 c85 -2 108 -6 125 -22z m22 -205 c16 -16 29 -39 29 -51 0 -12 -13 -35
-29 -51 -29 -29 -31 -29 -140 -29 l-111 0 0 80 0 80 111 0 c109 0 111 0 140
-29z"/>
<path d="M9608 7191 c-158 -51 -209 -250 -94 -366 81 -80 219 -88 314 -18 79
59 103 194 49 285 -37 64 -98 99 -180 104 -34 2 -74 0 -89 -5z m139 -42 c34
-13 80 -55 99 -91 8 -15 14 -51 14 -80 0 -105 -73 -178 -178 -178 -154 0 -235
150 -153 283 39 63 143 95 218 66z"/>
<path d="M10122 7187 c-88 -33 -141 -111 -142 -210 0 -95 59 -178 145 -207 51
-17 152 -9 200 16 l40 21 3 86 3 87 -26 0 c-25 0 -25 -1 -25 -74 0 -87 -8 -97
-80 -104 -71 -7 -116 5 -157 41 -107 94 -72 263 64 308 50 16 128 6 165 -21
26 -19 32 -20 44 -8 13 12 12 17 -5 32 -46 42 -159 58 -229 33z"/>
<path d="M10622 7183 c-14 -26 -192 -415 -192 -419 0 -2 10 -4 23 -4 17 1 28
13 49 60 l27 60 121 0 121 0 26 -60 c21 -49 30 -60 49 -60 28 0 35 -20 -84
240 -70 153 -94 196 -110 198 -12 2 -25 -4 -30 -15z m81 -151 c26 -59 47 -110
47 -114 0 -5 -45 -8 -100 -8 -57 0 -100 4 -100 10 0 15 92 220 99 220 3 0 27
-49 54 -108z"/>
<path d="M10948 7194 c-5 -4 -8 -103 -8 -221 l0 -213 108 0 c134 0 195 17 245
66 47 47 60 89 55 174 -3 58 -8 75 -34 107 -51 65 -109 86 -244 91 -63 2 -118
1 -122 -4z m234 -44 c132 -37 173 -209 72 -301 -41 -37 -85 -49 -180 -49 l-84
0 0 180 0 180 78 0 c42 0 94 -5 114 -10z"/>
<path d="M11567 7186 c-68 -25 -111 -71 -133 -143 -32 -107 12 -210 110 -258
48 -24 65 -27 125 -23 53 3 77 9 110 31 109 72 133 219 53 326 -51 69 -173 99
-265 67z m170 -45 c61 -28 98 -88 97 -160 0 -107 -62 -172 -169 -179 -53 -4
-70 0 -105 19 -101 57 -122 197 -42 283 54 57 141 72 219 37z"/>
<path d="M12020 7178 c-36 -18 -48 -32 -59 -64 -12 -34 -12 -44 0 -69 21 -42
54 -62 148 -89 92 -26 114 -44 109 -90 -7 -67 -114 -91 -213 -47 -38 17 -50
19 -57 9 -19 -31 70 -68 162 -68 72 0 120 24 144 73 38 79 -4 128 -140 165
-42 12 -85 29 -95 38 -24 22 -24 65 0 95 24 30 119 39 176 15 31 -13 40 -14
46 -4 10 16 -7 32 -50 47 -54 18 -122 13 -171 -11z"/>
</g>
</svg>
