<?xml version="1.0" standalone="no"?>
<!DOCTYPE svg PUBLIC "-//W3C//DTD SVG 20010904//EN"
 "http://www.w3.org/TR/2001/REC-SVG-20010904/DTD/svg10.dtd">
<svg version="1.0" xmlns="http://www.w3.org/2000/svg"
 width="2251.000000pt" height="2250.000000pt" viewBox="0 0 2251.000000 2250.000000"
 preserveAspectRatio="xMidYMid meet">

<g transform="translate(0.000000,2250.000000) scale(0.100000,-0.100000)"
fill="#000000" stroke="none">
<path d="M6232 12592 c9 -23 270 -262 304 -280 82 -42 118 -43 1039 -40 l880
3 58 27 c78 37 95 51 194 165 47 54 92 106 101 116 14 16 -48 17 -1282 17
-714 0 -1296 -4 -1294 -8z"/>
<path d="M9410 11250 l0 -1320 25 0 25 0 0 1320 0 1320 -25 0 -25 0 0 -1320z"/>
<path d="M10601 12430 c-102 -21 -192 -94 -233 -188 -25 -56 -29 -166 -8 -227
67 -202 333 -282 509 -154 l43 31 -27 28 -27 28 -51 -31 c-46 -29 -58 -32
-132 -32 -73 0 -86 3 -131 30 -30 19 -60 49 -79 79 -26 43 -30 59 -30 120 1
103 45 176 132 220 75 38 186 29 250 -20 40 -30 44 -30 74 2 l24 26 -25 20
c-68 57 -196 86 -289 68z"/>
<path d="M13547 12430 c-69 -12 -130 -45 -177 -96 -61 -67 -83 -124 -84 -216
0 -130 64 -232 184 -290 37 -18 63 -22 145 -23 92 0 105 2 168 32 l67 32 0
125 0 126 -40 0 -39 0 -3 -102 -3 -103 -30 -15 c-20 -10 -59 -15 -116 -15 -78
0 -90 3 -135 30 -30 19 -60 49 -79 79 -26 43 -30 59 -30 120 1 53 6 81 22 111
71 134 242 175 368 89 l38 -25 25 25 c22 21 23 27 12 41 -25 30 -95 63 -154
74 -66 12 -70 12 -139 1z"/>
<path d="M11187 12373 c-14 -32 -78 -172 -141 -310 l-114 -253 44 0 45 0 34
75 34 75 168 0 168 0 30 -71 c16 -39 35 -73 41 -76 7 -2 28 -3 48 -1 l35 3
-138 305 -139 305 -44 3 -45 3 -26 -58z m142 -197 c34 -77 60 -141 57 -143 -2
-2 -62 -2 -134 -1 l-131 3 58 130 c31 72 61 139 64 149 11 28 18 17 86 -138z"/>
<path d="M11680 12120 l0 -310 210 0 210 0 0 35 0 35 -167 2 -168 3 -3 273 -2
272 -40 0 -40 0 0 -310z"/>
<path d="M12210 12120 l0 -310 215 0 215 0 0 35 0 35 -170 0 -170 0 0 275 0
275 -45 0 -45 0 0 -310z"/>
<path d="M12740 12120 l0 -310 225 0 225 0 0 35 0 35 -180 0 -180 0 0 105 0
105 155 0 155 0 0 35 0 35 -155 0 -155 0 0 95 0 95 175 0 175 0 0 40 0 40
-220 0 -220 0 0 -310z"/>
<path d="M14187 12373 c-14 -32 -78 -172 -141 -310 l-114 -253 44 0 45 0 34
75 34 75 168 0 168 0 30 -71 c16 -39 35 -73 41 -76 7 -2 28 -3 48 -1 l35 3
-138 305 -139 305 -44 3 -45 3 -26 -58z m142 -197 c34 -77 60 -141 57 -143 -2
-2 -62 -2 -134 -1 l-131 3 58 130 c31 72 61 139 64 149 11 28 18 17 86 -138z"/>
<path d="M14680 12121 l0 -311 40 0 39 0 3 93 3 92 97 3 97 3 66 -96 66 -95
45 0 c24 0 44 3 44 6 0 3 -29 46 -65 96 -36 50 -65 94 -64 97 0 3 19 20 42 36
63 45 90 104 84 184 -6 81 -41 134 -112 170 -46 24 -61 26 -217 30 l-168 3 0
-311z m335 215 c67 -28 97 -130 59 -196 -31 -52 -67 -64 -196 -68 l-118 -4 0
141 0 141 110 0 c74 0 122 -5 145 -14z"/>
<path d="M15330 12120 l0 -310 40 0 40 0 0 310 0 310 -40 0 -40 0 0 -310z"/>
<path d="M6672 11518 l3 -663 26 -67 c15 -37 42 -93 60 -124 33 -55 312 -354
330 -354 5 0 9 391 9 935 l0 935 -215 0 -216 0 3 -662z"/>
<path d="M7330 11147 l0 -1032 108 -108 c59 -59 112 -107 117 -107 5 0 56 46
112 102 l103 103 0 1037 0 1038 -220 0 -220 0 0 -1033z"/>
<path d="M8020 11245 c0 -514 4 -935 8 -935 18 0 293 290 331 349 23 36 53
101 69 145 l27 81 3 648 3 647 -221 0 -220 0 0 -935z"/>
<path d="M10493 11561 c-82 -38 -98 -142 -33 -222 17 -22 30 -41 29 -43 -2 -1
-23 -14 -46 -29 -138 -88 -134 -242 9 -302 23 -9 67 -15 112 -15 66 0 82 4
142 35 l68 35 38 -37 c37 -36 38 -36 58 -18 27 25 26 33 -16 77 l-37 37 20 48
c37 88 37 98 -1 110 l-33 10 -17 -53 c-9 -30 -20 -54 -24 -54 -4 0 -40 33 -81
74 l-73 73 49 35 c107 77 110 200 6 244 -45 20 -121 17 -170 -5z m154 -63 c30
-28 29 -59 -3 -98 -23 -26 -72 -60 -88 -60 -15 0 -56 79 -56 107 0 65 97 98
147 51z m-13 -337 l88 -88 -39 -24 c-54 -34 -164 -39 -211 -10 -37 24 -56 64
-47 101 7 27 88 110 108 110 7 0 52 -40 101 -89z"/>
<path d="M11192 11543 c-37 -71 -262 -574 -262 -583 0 -6 18 -10 40 -10 l41 0
36 80 36 80 167 0 166 0 34 -80 34 -80 43 0 c24 0 43 4 43 9 0 4 -62 145 -138
312 l-138 304 -42 3 c-39 3 -42 1 -60 -35z m128 -216 c33 -76 60 -140 60 -143
0 -2 -60 -4 -134 -4 l-134 0 66 150 c37 82 70 146 74 142 4 -4 34 -69 68 -145z"/>
<path d="M11734 11556 c-72 -34 -99 -75 -99 -153 0 -57 3 -65 35 -98 34 -35
92 -58 239 -95 52 -14 101 -58 101 -93 0 -57 -65 -97 -156 -97 -50 0 -140 26
-176 51 -34 24 -33 25 -49 -12 -12 -30 -11 -33 16 -55 59 -46 224 -69 317 -44
77 22 128 87 128 165 0 95 -39 128 -204 173 -131 36 -160 55 -164 107 -8 95
137 136 272 77 l46 -21 14 32 c12 28 12 34 -3 45 -58 46 -235 56 -317 18z"/>
<path d="M12374 11559 c-265 -102 -263 -489 2 -589 75 -28 184 -27 261 2 78
29 153 104 178 178 57 171 -21 350 -178 408 -76 29 -191 29 -263 1z m236 -75
c85 -36 134 -116 134 -219 0 -143 -95 -239 -239 -239 -97 0 -174 46 -218 128
-16 31 -21 59 -21 111 0 129 64 206 199 239 29 7 105 -4 145 -20z"/>
<path d="M13124 11560 c-67 -27 -123 -76 -159 -141 -28 -50 -30 -62 -30 -154
0 -92 2 -104 30 -154 59 -106 157 -161 290 -161 83 0 160 24 210 65 l29 24
-29 31 c-28 30 -29 30 -49 11 -68 -61 -183 -74 -271 -30 -173 87 -173 339 -1
428 86 45 204 31 272 -30 20 -19 21 -19 49 11 34 35 29 44 -47 85 -46 26 -65
30 -148 32 -76 3 -105 -1 -146 -17z"/>
<path d="M13620 11265 l0 -315 45 0 45 0 0 315 0 315 -45 0 -45 0 0 -315z"/>
<path d="M14072 11543 c-37 -71 -262 -574 -262 -583 0 -6 18 -10 40 -10 l41 0
36 80 36 80 167 0 166 0 34 -80 34 -80 43 0 c24 0 43 4 43 9 0 4 -62 145 -138
312 l-138 304 -42 3 c-39 3 -42 1 -60 -35z m128 -216 c33 -76 60 -140 60 -143
0 -2 -60 -4 -134 -4 l-134 0 66 150 c37 82 70 146 74 142 4 -4 34 -69 68 -145z"/>
<path d="M14550 11264 l0 -316 178 5 c218 6 252 16 334 97 45 45 60 69 73 115
34 116 6 241 -72 318 -75 76 -157 97 -375 97 l-138 0 0 -316z m385 209 c83
-44 125 -114 125 -208 0 -94 -42 -164 -125 -208 -33 -18 -62 -22 -167 -25
l-128 -4 0 237 0 237 128 -4 c105 -3 134 -7 167 -25z"/>
<path d="M15470 11571 c-90 -29 -163 -91 -202 -170 -19 -38 -23 -63 -23 -136
0 -73 4 -98 23 -136 30 -61 81 -113 145 -147 47 -24 62 -27 157 -27 91 0 112
3 154 24 27 14 66 41 86 61 63 63 85 121 85 225 0 104 -22 162 -85 225 -61 61
-121 84 -225 87 -49 1 -101 -1 -115 -6z m225 -100 c33 -19 60 -44 80 -76 27
-44 30 -57 30 -130 0 -73 -3 -86 -30 -130 -99 -159 -347 -142 -426 30 -24 53
-24 147 0 200 61 132 215 179 346 106z"/>
<path d="M16125 11568 c-44 -16 -93 -55 -110 -88 -21 -41 -19 -116 5 -154 26
-43 77 -69 195 -100 113 -30 142 -46 156 -83 41 -108 -151 -163 -301 -86 l-58
30 -15 -33 c-16 -33 -16 -33 16 -52 80 -49 234 -69 318 -41 82 28 129 87 129
161 0 91 -50 135 -202 176 -156 42 -195 76 -168 143 29 69 164 89 272 41 l46
-20 11 25 c18 39 13 50 -31 69 -52 21 -218 29 -263 12z"/>
<path d="M11663 10631 c-17 -4 -52 -20 -77 -35 -146 -85 -169 -294 -46 -416
144 -145 410 -85 466 106 51 177 -61 338 -243 349 -38 2 -82 1 -100 -4z m165
-57 c84 -34 132 -109 132 -204 0 -130 -92 -220 -222 -220 -144 1 -247 128
-217 269 13 60 67 126 123 152 50 23 134 24 184 3z"/>
<path d="M12303 10630 c-199 -47 -270 -304 -123 -450 77 -78 202 -102 311 -61
85 33 89 39 89 153 l0 98 -30 0 -30 0 0 -94 0 -94 -40 -16 c-22 -9 -66 -16
-98 -16 -212 1 -306 249 -148 388 74 65 202 70 287 11 26 -18 27 -18 43 0 16
18 16 20 -14 41 -61 44 -163 60 -247 40z"/>
<path d="M14046 10624 c-67 -21 -147 -101 -165 -166 -22 -77 -11 -175 24 -231
55 -89 150 -133 265 -125 80 6 135 33 187 92 46 53 63 101 63 182 0 186 -182
306 -374 248z m194 -55 c60 -27 79 -45 106 -104 32 -68 31 -127 -3 -196 -39
-76 -93 -112 -179 -117 -85 -6 -142 16 -189 71 -97 112 -63 282 69 343 64 30
135 31 196 3z"/>
<path d="M14615 10626 c-22 -9 -52 -29 -67 -46 -23 -25 -28 -40 -28 -83 0 -87
30 -112 180 -154 109 -29 134 -48 138 -99 2 -31 -2 -44 -21 -62 -55 -52 -210
-44 -278 14 -14 12 -17 11 -27 -10 -10 -22 -7 -26 41 -51 66 -37 175 -46 242
-21 82 32 121 108 92 178 -19 46 -64 72 -171 99 -103 26 -146 55 -146 101 0
40 15 65 50 83 41 21 145 19 197 -4 42 -19 53 -15 53 20 0 35 -186 60 -255 35z"/>
<path d="M10427 10375 c-65 -141 -117 -260 -117 -266 0 -6 12 -9 26 -7 20 2
31 15 52 63 15 33 31 66 35 73 6 9 48 12 152 12 l144 0 35 -75 c31 -66 38 -75
61 -75 33 0 43 -29 -98 282 -111 245 -112 247 -143 248 -31 0 -31 -2 -147
-255z m212 56 c34 -74 61 -135 61 -137 0 -2 -56 -4 -125 -4 -69 0 -125 4 -125
9 0 4 17 46 39 92 21 46 48 106 60 133 12 27 23 47 25 45 2 -2 32 -64 65 -138z"/>
<path d="M10932 10368 l3 -263 160 0 c139 0 165 3 199 20 57 28 81 66 80 123
0 56 -23 95 -64 112 -17 7 -30 14 -30 15 0 2 13 17 29 33 61 60 49 158 -24
199 -37 21 -53 23 -198 23 l-157 0 2 -262z m303 208 c39 -17 55 -42 55 -89 0
-68 -61 -96 -217 -97 l-83 0 0 100 0 100 105 0 c69 0 118 -5 140 -14z m30
-240 c39 -17 55 -42 55 -86 0 -79 -43 -100 -210 -100 l-120 0 0 100 0 100 120
0 c81 0 132 -5 155 -14z"/>
<path d="M12777 10375 c-65 -141 -117 -260 -117 -266 0 -6 12 -9 26 -7 20 2
31 15 52 63 15 33 31 66 35 73 6 9 48 12 152 12 l144 0 35 -75 c31 -66 38 -75
61 -75 33 0 43 -29 -98 282 -111 245 -112 247 -143 248 -31 0 -31 -2 -147
-255z m212 56 c34 -74 61 -135 61 -137 0 -2 -56 -4 -125 -4 -69 0 -125 4 -125
9 0 4 17 46 39 92 21 46 48 106 60 133 12 27 23 47 25 45 2 -2 32 -64 65 -138z"/>
<path d="M13282 10368 l3 -263 145 1 c129 0 151 3 198 24 62 27 127 95 142
149 13 48 13 135 -2 182 -16 55 -69 113 -130 143 -49 25 -60 26 -205 26 l-153
0 2 -262z m297 206 c179 -53 205 -302 41 -394 -39 -22 -60 -25 -162 -28 l-118
-4 0 221 0 221 93 0 c55 0 115 -6 146 -16z"/>
</g>
</svg>
